<svg xmlns="http://www.w3.org/2000/svg" viewBox="0 0 1024 1024" width="100%" height="100%">
  <path fill="currentColor" d="M559.65 766.63c-12.92 12.96-28.56 19.41-46.73 19.41-18.17 0-34.18-6.45-47.18-19.41-13.44-13.03-19.89-28.59-19.89-47.18 0-18.17 6.45-34.25 19.89-47.18 12.99-13.47 29-19.95 47.18-19.95 18.17 0 33.77 6.48 46.73 19.95 13.47 12.93 19.92 29 19.92 47.18 0 18.59-6.45 34.15-19.92 47.18zm-94.73-444.98c12.51-13.41 28.59-20.33 48-20.33 19.47 0 35.52 6.48 48.07 20.33 12.13 13.41 18.58 30.31 18.58 50.67 0 17.28-25.99 145.85-35.01 239.34l-62.77 0c-7.37-93.53-35.93-222.1-35.93-239.34 0-20.36 6.48-37.26 19.06-51.11zm475.22 437.16L590.41 148.54c-42.82-74.43-112.56-74.43-155.34 0L85.32 758.81c-42.79 74.4 7.82 135.43 87.9 135.43l699.44 0c85.27 0 120.34-61.03 77.49-135.43z" />
</svg>